<?xml version="1.0" encoding="UTF-8"?>
<svg xmlns="http://www.w3.org/2000/svg" viewBox="0 0 16.14 16.15">
  <path style="fill: white;" d="M10.04,16.15h-3.95c-1.83,0-3.33-1.3-3.5-3.03l-.81-8.34c-.03-.28.19-.52.48-.54.28-.02.55.18.57.45l.81,8.34c.12,1.21,1.17,2.12,2.45,2.12h3.95c1.28,0,2.33-.91,2.45-2.12l.81-8.34c.03-.27.29-.47.57-.45.29.03.5.27.48.54l-.81,8.34c-.17,1.73-1.67,3.03-3.5,3.03Z"/>
  <path style="fill: white;" d="M15.61,2.35h-3.96c-.11-1.31-1.26-2.35-2.68-2.35h-1.91c-1.41,0-2.56,1.04-2.68,2.35H.53c-.29,0-.53.22-.53.5s.24.5.53.5h15.09c.29,0,.53-.22.53-.5s-.24-.5-.53-.5ZM7.06,1h1.91c.83,0,1.51.59,1.62,1.35h-5.15c.11-.76.79-1.35,1.62-1.35Z"/>
</svg>