<?xml version="1.0" encoding="UTF-8"?>
<svg xmlns="http://www.w3.org/2000/svg" viewBox="0 0 18.4 18.37">
  <path style="fill: black;" d="M17.34,2l-.97-.97c-1.37-1.37-3.76-1.37-5.13,0L2.24,10.03c-.74.74-1.25,1.67-1.48,2.68L.05,15.79c-.16.71.05,1.44.56,1.96.4.4.93.62,1.49.62.16,0,.32-.02.47-.05l3.08-.7c1.02-.23,1.95-.75,2.68-1.48l9-9c.69-.69,1.06-1.6,1.06-2.57s-.38-1.88-1.06-2.56ZM7.63,15.42c-.6.61-1.37,1.03-2.2,1.22l-3.08.7c-.38.09-.75-.02-1.03-.3-.27-.27-.38-.65-.3-1.03l.7-3.08c.19-.83.61-1.59,1.22-2.2l6.88-6.88c1.02,2.03,2.59,3.6,4.69,4.68l-6.89,6.89ZM16.64,6.42l-1.37,1.37c-2.15-1.04-3.73-2.61-4.69-4.68l1.37-1.37c.5-.5,1.16-.77,1.86-.77s1.36.27,1.86.77l.97.97c.5.5.77,1.16.77,1.86s-.27,1.36-.77,1.86Z"/>
</svg>